<svg width="52" height="52" xmlns="http://www.w3.org/2000/svg">

 <g>
  <title>Layer 1</title>
  <path stroke="null" id="svg_1" d="m31.62056,6.93162c-5.16453,0 -10.13417,1.96106 -13.89794,5.4934l-2.13159,0l0,-5.73701c0,-1.03534 -0.75519,-2.14377 -2.14377,-2.14377l-3.33746,0c-1.03534,0 -2.14377,0.75519 -2.14377,2.14377l0,5.74919l-5.82228,0c-1.03534,0 -2.14377,0.76737 -2.14377,2.15595l0,3.52016c0,1.03534 0.75519,2.14377 2.14377,2.14377l5.82228,0l0,5.46904c0,1.03534 0.75519,2.14377 2.14377,2.14377l1.12061,0a20.45105,20.45105 0 0 0 20.39015,19.90293a20.43887,20.43887 0 0 0 20.41451,-20.41451a20.46323,20.46323 0 0 0 -20.41451,-20.42669z" fill="#a71680"/>
  <g stroke="null" id="svg_2" fill="#fff">
   <path stroke="null" id="svg_3" d="m47.59514,23.32587a9.37204,9.37204 0 0 0 -2.88747,-0.7341c-1.44373,0 -2.15337,0.46493 -2.15337,1.39479c0,0.58728 0.50164,1.07668 1.51714,1.4682c1.49267,0.56281 2.44701,0.99104 2.81406,1.29691c1.02774,0.78304 1.54162,1.94537 1.54162,3.46252c0,1.59056 -0.57505,2.78959 -1.71291,3.58487a6.23987,6.23987 0 0 1 -3.64604,0.99104c-1.06445,0 -2.38583,-0.2447 -3.96415,-0.7341l0.30588,-3.03429c1.06445,0.53834 2.25125,0.85645 3.45028,0.90539c1.38256,0 2.07996,-0.4894 2.07996,-1.4315c0,-0.64846 -0.51387,-1.19903 -1.52938,-1.61503c-0.9788,-0.37929 -1.9209,-0.81975 -2.82629,-1.32138a3.70722,3.70722 0 0 1 -1.52938,-3.18111c0,-1.59056 0.56281,-2.77735 1.70067,-3.54816a6.36222,6.36222 0 0 1 3.63381,-0.9421c0.85645,0 2.01878,0.19576 3.45028,0.58728l-0.2447,2.85076zm-20.61604,-3.05876l3.3524,0l0,9.01722c0,0.80751 0.18353,1.4682 0.51387,1.95761c0.37929,0.52611 0.91763,0.79528 1.62726,0.79528c1.32138,0 1.98208,-1.05221 1.98208,-3.13217l0,-8.63794l3.37687,0l0,9.12734c0,1.76185 -0.55058,3.13217 -1.6395,4.09874a5.726,5.726 0 0 1 -3.91521,1.30915a5.38342,5.38342 0 0 1 -3.67051,-1.28468a4.77167,4.77167 0 0 1 -1.62726,-3.79286l0,-9.46992l0,0.01224zm-6.15423,11.57435c0.42823,0 0.79528,-0.17129 1.12562,-0.4894s0.47717,-0.7341 0.47717,-1.21127c0,-1.07668 -0.70963,-1.61503 -2.11666,-1.61503l-1.40703,0l0,3.30346l1.9209,0l0,0.01224zm-0.68516,-5.87282c0.46493,0.02447 0.91763,-0.09788 1.30915,-0.34258c0.44046,-0.29364 0.67293,-0.6974 0.67293,-1.24797c0,-0.47717 -0.208,-0.86869 -0.59952,-1.15009c-0.34258,-0.25694 -0.7341,-0.39152 -1.1868,-0.39152l-1.4315,0l0,3.13217l1.2235,0l0.01224,0zm-4.5392,-5.75047l5.79941,0c1.10115,0 2.01878,0.26917 2.72841,0.79528c0.85645,0.63622 1.34585,1.65173 1.28468,2.71618a3.91521,3.91521 0 0 1 -0.52611,2.19007c-0.42823,0.58728 -1.02774,1.02774 -1.71291,1.26021c1.73738,0.44046 2.59383,1.60279 2.59383,3.48699c0,2.54489 -1.73738,3.81733 -5.21213,3.81733l-4.96743,0l0,-14.26606l0.01224,0z"/>
   <path stroke="null" id="svg_4" d="m15.68616,14.40653c-1.03998,0 -2.15337,-0.75857 -2.15337,-2.15337l0,-5.77494l-3.57263,0l0,5.77494c0,1.05221 -0.75857,2.15337 -2.15337,2.15337l-5.87282,0l0,3.75616l5.87282,0c1.03998,0 2.15337,0.75857 2.15337,2.15337l0,5.49353l3.58487,0l0,-5.50577c0,-1.03998 0.75857,-2.14113 2.15337,-2.14113l6.33775,0l0,-3.75616l-6.34999,0z"/>
  </g>
 </g>
</svg>